HIERARCHY
ROOT Hips
{
	OFFSET 0.000000 0.000000 0.000000 
	CHANNELS 6 Xposition Yposition Zposition Zrotation Xrotation Yrotation
	JOINT Spine
	{
		OFFSET -0.000000 8.061080 0.000000 
		CHANNELS 3 Zrotation Xrotation Yrotation
		JOINT Spine1
		{
			OFFSET -0.000000 20.532677 0.000000 
			CHANNELS 3 Zrotation Xrotation Yrotation
			JOINT Neck
			{
				OFFSET -0.000000 22.498795 0.000000 
				CHANNELS 3 Zrotation Xrotation Yrotation
				JOINT Head
				{
					OFFSET -0.000000 15.237408 1.966117 
					CHANNELS 3 Zrotation Xrotation Yrotation
					End Site
					{
						OFFSET -0.000000 19.661171 0.000000 
					}
				}
			}
			JOINT LeftShoulder
			{
				OFFSET 3.894675 16.042269 -0.398189 
				CHANNELS 3 Zrotation Xrotation Yrotation
				JOINT LeftArm
				{
					OFFSET 19.709621 0.000000 0.000000 
					CHANNELS 3 Zrotation Xrotation Yrotation
					JOINT LeftForeArm
					{
						OFFSET 25.566900 0.000000 0.000000 
						CHANNELS 3 Zrotation Xrotation Yrotation
						JOINT LeftHand
						{
							OFFSET 25.401896 0.000000 0.000000 
							CHANNELS 3 Zrotation Xrotation Yrotation
							End Site
							{
								OFFSET 14.745877 0.000000 0.000000 
							}
						}
					}
				}
			}
			JOINT RightShoulder
			{
				OFFSET -3.930777 16.042269 -0.398189 
				CHANNELS 3 Zrotation Xrotation Yrotation
				JOINT RightArm
				{
					OFFSET -19.709621 0.000000 0.000000 
					CHANNELS 3 Zrotation Xrotation Yrotation
					JOINT RightForeArm
					{
						OFFSET -25.566900 0.000000 0.000000 
						CHANNELS 3 Zrotation Xrotation Yrotation
						JOINT RightHand
						{
							OFFSET -25.401896 0.000000 0.000000 
							CHANNELS 3 Zrotation Xrotation Yrotation
							End Site
							{
								OFFSET -14.745877 0.000000 0.000000 
							}
						}
					}
				}
			}
		}
	}
	JOINT LeftUpLeg
	{
		OFFSET 9.830585 0.000000 0.000000 
		CHANNELS 3 Zrotation Xrotation Yrotation
		JOINT LeftLeg
		{
			OFFSET -0.000000 -46.474842 0.000000 
			CHANNELS 3 Zrotation Xrotation Yrotation
			JOINT LeftFoot
			{
				OFFSET -0.000000 -30.290520 0.000000 
				CHANNELS 3 Zrotation Xrotation Yrotation
				JOINT LeftToeBase
				{
					OFFSET -0.000000 -6.389880 14.745877 
					CHANNELS 3 Zrotation Xrotation Yrotation
					End Site
					{
						OFFSET -0.000000 0.000000 3.932234 
					}
				}
			}
		}
	}
	JOINT RightUpLeg
	{
		OFFSET -9.830585 0.000000 0.000000 
		CHANNELS 3 Zrotation Xrotation Yrotation
		JOINT RightLeg
		{
			OFFSET -0.000000 -46.474842 0.000000 
			CHANNELS 3 Zrotation Xrotation Yrotation
			JOINT RightFoot
			{
				OFFSET -0.000000 -30.290520 0.000000 
				CHANNELS 3 Zrotation Xrotation Yrotation
				JOINT RightToeBase
				{
					OFFSET -0.000000 -6.389880 14.745877 
					CHANNELS 3 Zrotation Xrotation Yrotation
					End Site
					{
						OFFSET -0.000000 0.000000 3.932234 
					}
				}
			}
		}
	}
}
MOTION
Frames: 15
Frame Time: 0.010000
0.000000 85.430466 0.000000 -2.186491 3.859597 3.609516 2.545793 -7.558024 -0.001314 1.062858 -2.136289 -0.039642 3.469794 9.405354 1.680087 -0.884969 4.788235 2.635682 2.828433 10.647237 0.186626 -69.632690 27.723248 -24.891136 -12.993710 2.283973 -4.170851 6.263982 2.189760 6.952736 -8.056433 9.797314 -10.025253 50.767708 56.259151 43.939941 6.856790 -7.823535 7.579692 -4.363877 -8.460454 4.948635 6.466332 3.838640 2.373379 2.163779 -7.084798 1.588119 0.595768 3.534842 0.028628 0.000000 0.000000 0.000000 -7.136491 -2.408638 8.927075 9.512068 4.443308 -19.027569 -5.060390 -0.894582 -7.779377 0.000000 0.000000 0.000000 
-0.000025 85.430618 -0.002679 -2.188319 3.858930 3.613045 2.535251 -7.550758 -0.009594 1.081175 -2.156239 -0.041598 3.460646 9.420223 1.687218 -0.879799 4.777780 2.640593 2.822935 10.657498 0.204273 -69.630089 27.736437 -24.901644 -12.985794 2.278169 -4.156657 6.466082 2.195672 6.908454 -8.060526 9.812346 -10.019271 50.747246 56.264977 43.957081 6.859666 -7.818301 7.575827 -4.402212 -8.456838 4.948847 6.470399 3.839334 2.372361 2.140882 -7.106878 1.582928 0.676626 3.583340 0.044153 0.000000 0.000000 0.000000 -7.131969 -2.406616 8.922413 9.504561 4.425919 -18.909521 -5.135160 -0.858626 -7.883887 0.000000 0.000000 0.000000 
0.000081 85.430801 -0.005070 -2.189121 3.858662 3.616204 2.525881 -7.546620 -0.016257 1.095706 -2.171559 -0.042606 3.453646 9.431950 1.693779 -0.874912 4.768705 2.645276 2.818928 10.665212 0.213528 -69.630516 27.743006 -24.903231 -12.977894 2.274231 -4.147492 6.646342 2.201809 6.871120 -8.062652 9.823969 -10.014649 50.735237 56.268578 43.965385 6.862801 -7.811244 7.572012 -4.437752 -8.451328 4.949656 6.472136 3.839334 2.371615 2.125058 -7.121770 1.578748 0.750917 3.621077 0.050922 0.000000 0.000000 0.000000 -7.128918 -2.402948 8.918258 9.498561 4.410615 -18.803095 -5.197577 -0.833451 -7.972264 0.000000 0.000000 0.000000 
0.000553 85.430756 -0.005672 -2.188160 3.851394 3.619497 2.518328 -7.539779 -0.021159 1.105268 -2.178681 -0.043781 3.448959 9.436810 1.699620 -0.870609 4.762536 2.649668 2.817756 10.669871 0.218735 -69.631989 27.747089 -24.901575 -12.971936 2.271770 -4.141392 6.779470 2.206881 6.847759 -8.063580 9.827540 -10.010258 50.738842 56.270496 43.956829 6.864815 -7.803071 7.569420 -4.463542 -8.444171 4.947523 6.472245 3.847701 2.369617 2.113947 -7.134607 1.577464 0.795754 3.646999 0.054367 0.000000 0.000000 0.000000 -7.129010 -2.389628 8.916954 9.497621 4.403844 -18.751501 -5.219779 -0.834995 -8.006039 0.000000 0.000000 0.000000 
0.001145 85.430641 -0.007022 -2.189199 3.850967 3.621435 2.515448 -7.542633 -0.023179 1.110673 -2.178575 -0.044178 3.447493 9.434589 1.704234 -0.868711 4.758529 2.653720 2.819889 10.672602 0.224974 -69.632729 27.751913 -24.904125 -12.968722 2.270370 -4.134686 6.871466 2.211079 6.833800 -8.062633 9.826235 -10.009140 50.743885 56.272327 43.946751 6.865938 -7.798403 7.567322 -4.479932 -8.439844 4.939330 6.474862 3.848579 2.369991 2.106248 -7.145136 1.578134 0.784629 3.654926 0.060228 0.000000 0.000000 0.000000 -7.128892 -2.388240 8.917520 9.500579 4.408825 -18.759226 -5.208455 -0.848575 -7.991989 0.000000 0.000000 0.000000 
0.001988 85.430527 -0.008006 -2.190451 3.848887 3.622631 2.513973 -7.545422 -0.023589 1.114689 -2.175420 -0.044310 3.447852 9.430721 1.708506 -0.868571 4.753619 2.658049 2.822798 10.675156 0.229901 -69.634033 27.753973 -24.906704 -12.967690 2.270765 -4.128217 6.924747 2.214915 6.826293 -8.059742 9.825792 -10.011520 50.742756 56.273624 43.943336 6.867547 -7.797650 7.564526 -4.493534 -8.439232 4.929675 6.477760 3.851546 2.370738 2.102438 -7.152532 1.579313 0.748660 3.650567 0.064363 0.000000 0.000000 0.000000 -7.128556 -2.386977 8.917907 9.503682 4.415855 -18.772137 -5.196615 -0.859629 -7.976610 0.000000 0.000000 0.000000 
0.002828 85.430542 -0.009109 -2.191647 3.846986 3.623461 2.511645 -7.547938 -0.023682 1.120364 -2.173613 -0.044220 3.447316 9.428135 1.714231 -0.868324 4.747161 2.663663 2.823529 10.678849 0.232928 -69.635422 27.752655 -24.906712 -12.968209 2.272036 -4.123024 6.945249 2.217839 6.823575 -8.056194 9.827833 -10.014965 50.738773 56.273712 43.942619 6.869615 -7.798708 7.560853 -4.506361 -8.440487 4.922721 6.480066 3.854083 2.371887 2.100694 -7.156693 1.579515 0.717307 3.642783 0.065792 0.000000 0.000000 0.000000 -7.127591 -2.384831 8.917709 9.505848 4.420227 -18.761772 -5.197880 -0.867235 -7.980200 0.000000 0.000000 0.000000 
0.003268 85.430328 -0.011391 -2.192686 3.849272 3.623037 2.510097 -7.555067 -0.022102 1.124140 -2.170647 -0.044543 3.447906 9.428194 1.716358 -0.868613 4.741070 2.665989 2.823515 10.682786 0.232769 -69.636513 27.749720 -24.904346 -12.969513 2.274113 -4.121547 6.890802 2.217626 6.837189 -8.053189 9.829546 -10.018087 50.740330 56.273212 43.938309 6.869969 -7.797385 7.558229 -4.509360 -8.438993 4.918705 6.481123 3.850353 2.373040 2.104958 -7.152421 1.578190 0.684281 3.626885 0.064468 0.000000 0.000000 0.000000 -7.126491 -2.387902 8.916907 9.506249 4.421475 -18.736725 -5.209168 -0.868641 -7.997502 0.000000 0.000000 0.000000 
0.003855 85.430038 -0.012709 -2.192781 3.845878 3.622988 2.507937 -7.557059 -0.022195 1.127895 -2.167073 -0.043927 3.448464 9.428379 1.718422 -0.868880 4.734859 2.668252 2.823496 10.686617 0.232547 -69.637695 27.746790 -24.901846 -12.970680 2.276181 -4.120067 6.836406 2.217398 6.850710 -8.050206 9.831182 -10.021111 50.742123 56.272701 43.933773 6.870285 -7.796020 7.555641 -4.512259 -8.437469 4.914634 6.481560 3.853307 2.372816 2.109264 -7.149196 1.577195 0.651625 3.611552 0.063136 0.000000 0.000000 0.000000 -7.126122 -2.384045 8.916182 9.506681 4.421762 -18.711456 -5.220341 -0.870624 -8.014760 0.000000 0.000000 0.000000 
0.004345 85.429764 -0.014535 -2.193300 3.845331 3.622741 2.506127 -7.561634 -0.021822 1.131529 -2.163733 -0.043480 3.449128 9.428662 1.720340 -0.869287 4.728595 2.670434 2.823611 10.690343 0.232362 -69.638847 27.743778 -24.899279 -12.972121 2.278333 -4.118800 6.782559 2.217202 6.864217 -8.047339 9.832733 -10.024105 50.744011 56.272251 43.929260 6.870737 -7.794643 7.553207 -4.514955 -8.435929 4.910465 6.482256 3.852837 2.373271 2.113530 -7.145400 1.575812 0.619688 3.596323 0.061868 0.000000 0.000000 0.000000 -7.125403 -2.383743 8.915441 9.507025 4.422542 -18.687092 -5.231274 -0.872326 -8.031594 0.000000 0.000000 0.000000 
0.004810 85.429504 -0.016385 -2.193742 3.844750 3.622480 2.504235 -7.566121 -0.021455 1.135225 -2.160453 -0.043156 3.449652 9.429010 1.722126 -0.869634 4.722657 2.672397 2.823521 10.694087 0.232247 -69.639954 27.741039 -24.896873 -12.973143 2.280340 -4.117379 6.729315 2.216894 6.877447 -8.044616 9.834167 -10.026872 50.746368 56.271976 43.924366 6.870907 -7.793288 7.550790 -4.517181 -8.434375 4.906238 6.482863 3.852350 2.373646 2.117677 -7.141676 1.574623 0.589097 3.581734 0.060397 0.000000 0.000000 0.000000 -7.124778 -2.383479 8.914673 9.507350 4.423269 -18.663324 -5.241952 -0.873769 -8.047991 0.000000 0.000000 0.000000 
0.005209 85.429230 -0.018499 -2.194290 3.845473 3.622117 2.502442 -7.571762 -0.020295 1.138839 -2.157242 -0.043619 3.450042 9.429507 1.723732 -0.869864 4.716741 2.674135 2.823519 10.697646 0.232233 -69.641075 27.738379 -24.894447 -12.974249 2.282311 -4.116089 6.677360 2.216612 6.890405 -8.042113 9.835468 -10.029528 50.748886 56.271824 43.919456 6.871019 -7.791933 7.548604 -4.518791 -8.432796 4.901848 6.483511 3.850225 2.374319 2.121693 -7.137715 1.573337 0.560076 3.567768 0.058738 0.000000 0.000000 0.000000 -7.124177 -2.384931 8.914007 9.507803 4.424204 -18.640648 -5.252277 -0.875084 -8.063824 0.000000 0.000000 0.000000 
0.005667 85.428902 -0.020017 -2.194122 3.842429 3.621995 2.500283 -7.573939 -0.020384 1.142262 -2.153666 -0.043495 3.450538 9.430264 1.725027 -0.870345 4.710927 2.675643 2.823474 10.701123 0.232342 -69.642105 27.735859 -24.892107 -12.975213 2.284195 -4.114825 6.627116 2.216285 6.902937 -8.039766 9.836596 -10.031879 50.752014 56.271748 43.914131 6.871086 -7.790568 7.546566 -4.519887 -8.431190 4.897280 6.483634 3.852459 2.374037 2.125542 -7.134588 1.572275 0.533300 3.555072 0.056997 0.000000 0.000000 0.000000 -7.124132 -2.381927 8.913417 9.508183 4.424514 -18.619295 -5.261901 -0.876631 -8.078655 0.000000 0.000000 0.000000 
0.005940 85.428612 -0.022417 -2.194623 3.844217 3.621549 2.498588 -7.580420 -0.019957 1.145687 -2.150563 -0.043538 3.450864 9.431079 1.726116 -0.870729 4.705478 2.676892 2.823315 10.704402 0.232625 -69.643028 27.733585 -24.889828 -12.976055 2.285967 -4.113590 6.579134 2.215947 6.914857 -8.037680 9.837409 -10.033884 50.755821 56.271950 43.908276 6.870910 -7.789297 7.544681 -4.520182 -8.429614 4.892578 6.484160 3.848863 2.374886 2.129081 -7.130690 1.571102 0.509081 3.543199 0.054827 0.000000 0.000000 0.000000 -7.123626 -2.385019 8.912816 9.508542 4.425684 -18.600107 -5.270793 -0.877626 -8.092263 0.000000 0.000000 0.000000 
0.006224 85.428276 -0.024467 -2.194575 3.843607 3.621267 2.496554 -7.584556 -0.020380 1.149123 -2.147329 -0.043346 3.450968 9.432190 1.726981 -0.871134 4.700032 2.677868 2.823080 10.707558 0.233274 -69.643806 27.731649 -24.887783 -12.976844 2.287581 -4.112410 6.533944 2.215596 6.926113 -8.036003 9.838043 -10.035646 50.760136 56.272346 43.902229 6.870674 -7.788024 7.543041 -4.519667 -8.428015 4.887649 6.484267 3.847974 2.375122 2.132357 -7.127439 1.569995 0.487727 3.532921 0.052534 0.000000 0.000000 0.000000 -7.123625 -2.385386 8.912365 9.508954 4.426486 -18.582985 -5.278730 -0.878716 -8.104454 0.000000 0.000000 0.000000 
